# xmcd
#
# Track frame offsets:
#	150
#	13973
#	29895
#	46446
#	64175
#	82763
#	95630
#	109694
#	122975
#	136893
#	150452
#	166479
#
# Disc length: 2775 seconds
#
# Revision: 1
# Processed by: cddbd v1.5.2PL0 Copyright (c) Steve Scherf et al.
# Submitted via: audiograbber 1.83.01
#
DISCID=a10ad50c
DTITLE=Casey Donhahew Band - Lost Days
DYEAR=2005
DGENRE=Country Rock
TTITLE0=Stockyards
TTITLE1=Lost Days
TTITLE2=New Orleans
TTITLE3=High
TTITLE4=Tuksa
TTITLE5=Let It Take Over You
TTITLE6=You're Gone
TTITLE7=Can't Go Back
TTITLE8=Twelve Gauge
TTITLE9=Love You Like I Do
TTITLE10=Down The Road
TTITLE11=Back Home In Texas
EXTD=
EXTT0=
EXTT1=
EXTT2=
EXTT3=
EXTT4=
EXTT5=
EXTT6=
EXTT7=
EXTT8=
EXTT9=
EXTT10=
EXTT11=
PLAYORDER=
